<?xml version="1.0" standalone="no"?>
<!DOCTYPE svg PUBLIC "-//W3C//DTD SVG 20010904//EN"
 "http://www.w3.org/TR/2001/REC-SVG-20010904/DTD/svg10.dtd">
<svg version="1.0" xmlns="http://www.w3.org/2000/svg"
 width="2000.000000pt" height="2000.000000pt" viewBox="0 0 2000.000000 2000.000000"
 preserveAspectRatio="xMidYMid meet">

<g transform="translate(0.000000,2000.000000) scale(0.100000,-0.100000)"
fill="#000000" stroke="none">
<path d="M4413 12235 c-152 -24 -307 -73 -390 -124 -26 -17 -63 -37 -80 -47
-62 -31 -293 -266 -293 -298 0 -3 -13 -24 -28 -48 -55 -84 -106 -247 -122
-388 -7 -60 -11 -347 -10 -771 0 -547 3 -685 14 -723 42 -140 151 -233 303
-259 143 -25 295 45 367 168 51 87 54 130 49 693 -4 363 -2 550 6 626 19 170
67 290 150 377 26 27 45 52 42 56 -3 3 -1 3 6 -1 6 -3 28 3 48 14 124 70 339
63 476 -14 97 -55 175 -162 211 -292 23 -78 23 -88 23 -694 1 -446 4 -624 13
-649 29 -84 106 -171 182 -204 197 -88 405 -23 501 155 l34 63 2 165 c5 422 3
1229 -3 1245 -4 9 -23 33 -43 53 -19 20 -28 33 -18 29 17 -6 23 3 10 17 -12
11 -46 138 -47 176 -2 41 -13 63 -28 54 -6 -4 -6 1 1 14 8 16 6 25 -12 48 -12
15 -16 25 -9 20 7 -4 3 8 -8 26 -11 18 -27 48 -35 66 -8 17 -20 32 -25 32 -6
0 -10 6 -10 13 0 20 -108 126 -195 190 -75 56 -215 134 -215 121 0 -4 -7 -1
-15 6 -8 6 -20 8 -26 4 -8 -4 -9 -3 -5 4 7 12 -7 16 -56 12 -16 -1 -28 3 -28
9 0 6 -12 11 -27 12 -25 0 -26 1 -8 9 17 7 15 9 -12 9 -17 1 -39 4 -47 7 -12
5 -15 2 -10 -10 5 -13 0 -16 -25 -16 -19 0 -30 5 -29 12 2 7 -12 15 -32 19
-19 3 -30 7 -25 9 6 1 -1 6 -15 10 -40 13 -416 9 -507 -5z m60 -22 c-7 -2 -21
-2 -30 0 -10 3 -4 5 12 5 17 0 24 -2 18 -5z m467 -24 c0 -4 -12 -8 -27 -10
-37 -5 -79 1 -65 10 14 8 92 9 92 0z m-387 -6 c-7 -2 -19 -2 -25 0 -7 3 -2 5
12 5 14 0 19 -2 13 -5z m564 -9 c-3 -3 -12 -4 -19 -1 -8 3 -5 6 6 6 11 1 17
-2 13 -5z m-704 -37 c-3 -5 -9 -3 -14 4 -4 7 -5 17 -2 22 3 5 9 3 14 -4 4 -7
5 -17 2 -22z m593 -4 c12 -13 31 -23 42 -23 31 0 71 -21 77 -40 3 -10 15 -20
25 -23 12 -3 20 -14 20 -26 0 -17 -6 -21 -29 -21 -16 0 -38 -3 -48 -6 -14 -4
-15 -4 -4 4 7 5 10 15 6 21 -4 8 -11 9 -18 3 -17 -13 -47 -11 -47 4 0 22 -21
27 -35 8 -13 -17 -14 -17 -15 -2 0 12 -14 21 -42 28 -24 6 -51 13 -60 16 -12
4 -18 0 -18 -11 0 -12 -9 -15 -35 -13 -19 1 -35 7 -35 13 0 7 -13 12 -29 12
-23 0 -31 -6 -36 -24 -5 -22 -25 -33 -25 -13 0 6 5 10 10 10 6 0 10 6 10 14 0
8 10 22 22 30 26 18 21 28 -10 19 -12 -3 -22 -12 -22 -19 0 -9 -11 -14 -31
-14 -17 0 -28 4 -24 10 3 5 1 18 -4 27 -7 13 -10 14 -11 4 0 -17 -30 -40 -52
-41 -10 0 -18 -6 -18 -12 0 -8 -3 -9 -8 -3 -7 9 -47 35 -55 35 -3 0 -2 -11 1
-25 2 -15 0 -25 -7 -25 -6 0 -11 8 -12 18 0 13 -2 14 -6 2 -3 -8 -10 -18 -15
-21 -6 -4 -11 -18 -11 -33 -2 -23 -5 -26 -29 -20 -30 6 -36 -4 -16 -24 9 -9 9
-12 -1 -12 -7 0 -9 -5 -5 -12 5 -7 11 -5 21 8 12 16 15 17 23 4 6 -8 7 -22 4
-30 -3 -8 -8 -31 -11 -50 -4 -19 -11 -38 -16 -42 -7 -4 -7 -11 0 -20 16 -20
26 -95 14 -103 -6 -3 -14 1 -17 9 -3 9 -12 16 -19 16 -11 0 -11 -6 -2 -30 12
-31 31 -39 41 -17 5 10 7 10 12 0 3 -7 12 -13 20 -13 24 0 -2 -38 -28 -42 -13
-2 -27 -13 -33 -26 -5 -12 -15 -20 -22 -18 -7 3 -15 -4 -18 -15 -4 -10 -13
-19 -21 -19 -8 0 -14 -7 -14 -15 0 -8 -7 -15 -15 -15 -9 0 -21 -11 -27 -25
-13 -30 -33 -34 -25 -5 3 13 0 20 -9 20 -13 0 -18 -16 -15 -50 1 -8 -8 -21
-19 -28 -12 -7 -20 -8 -20 -2 0 22 -19 8 -34 -25 -17 -34 -39 -45 -51 -25 -3
6 3 10 13 10 12 0 22 9 25 22 8 29 1 38 -28 38 -13 0 -36 5 -50 12 -24 11 -26
16 -20 47 4 20 7 41 8 46 1 6 -6 9 -16 7 -9 -2 -20 4 -23 13 -7 17 -25 21 -21
3 1 -8 -13 -11 -45 -9 -29 2 -48 -2 -48 -8 0 -6 16 -11 36 -11 21 0 33 -4 29
-10 -3 -5 -19 -10 -36 -10 -16 0 -29 -4 -29 -10 0 -5 -14 -7 -32 -4 -25 4 -29
3 -18 -5 10 -7 11 -11 3 -11 -7 0 -13 -7 -13 -15 0 -8 5 -15 10 -15 6 0 10 5
10 10 0 6 4 10 10 10 5 0 8 -13 7 -30 -2 -27 -17 -45 -17 -20 0 6 -7 10 -15
10 -18 0 -20 -16 -2 -24 6 -3 3 -5 -8 -3 -17 2 -20 10 -20 50 0 27 -4 46 -10
44 -5 -2 -10 -20 -10 -41 0 -39 -19 -60 -45 -50 -20 9 -69 16 -51 8 11 -5 11
-8 0 -15 -12 -8 -12 -10 0 -18 10 -6 10 -10 1 -16 -6 -4 -18 1 -25 11 -9 13
-14 14 -15 6 0 -15 18 -35 40 -45 8 -4 2 -5 -13 -2 -43 9 -67 -3 -67 -31 0
-14 -6 -32 -14 -39 -12 -12 -15 -9 -18 25 -3 36 -1 41 27 54 18 9 31 23 32 35
2 25 -1 26 -22 5 -9 -9 -19 -14 -22 -11 -3 3 2 13 11 22 19 20 22 67 3 60 -6
-3 -18 4 -25 16 -15 24 -10 35 10 23 7 -5 19 -9 26 -10 11 -2 11 1 1 13 -18
21 -17 65 1 85 34 38 40 48 30 48 -18 0 -11 22 10 27 12 3 17 10 13 17 -4 6
-8 28 -9 48 -2 29 2 39 17 43 10 4 19 13 19 22 0 12 3 13 14 4 11 -10 14 -7
12 14 -1 18 -5 24 -16 20 -9 -4 -7 1 5 13 19 18 21 18 40 4 12 -10 15 -11 8
-2 -18 20 -16 30 5 30 13 0 14 2 4 9 -14 8 -7 16 28 36 13 8 13 7 0 -11 -14
-18 -13 -18 9 1 14 11 38 34 54 50 29 29 29 30 22 5 l-7 -25 19 22 c10 12 31
25 46 28 15 4 30 12 34 18 3 6 1 7 -5 3 -7 -4 -12 -2 -12 3 0 6 8 10 18 9 9
-1 30 0 45 0 24 2 27 5 22 23 -6 18 -4 20 13 15 11 -4 23 -2 27 4 3 5 11 10
17 10 7 0 6 -6 -2 -15 -7 -8 -11 -15 -9 -16 32 -6 37 -6 33 6 -4 10 5 11 38 5
25 -5 44 -5 46 1 2 5 12 9 23 9 10 0 19 6 19 13 0 10 23 13 93 13 68 0 102 5
129 18 30 14 44 16 67 8 23 -8 32 -7 42 4 14 17 56 18 62 2 4 -10 8 -10 14 -2
6 9 24 9 66 1 43 -8 64 -8 77 0 14 10 19 7 29 -14 11 -24 13 -25 25 -8 16 22
38 11 34 -17 -2 -12 3 -23 10 -25 8 -3 12 6 12 26 0 16 5 33 10 36 6 4 8 11 5
16 -11 17 30 -5 51 -28z m-336 -70 c3 -3 -3 -10 -12 -17 -10 -7 -14 -17 -10
-21 4 -4 0 -6 -8 -3 -8 2 -16 17 -18 32 -3 25 -1 27 20 21 13 -4 25 -10 28
-12z m-127 -29 c-4 -12 -8 -13 -14 -3 -9 15 -2 32 11 24 5 -3 6 -13 3 -21z
m334 -26 c-3 -8 -6 -5 -6 6 -1 11 2 17 5 13 3 -3 4 -12 1 -19z m-327 -20 c0
-15 -18 -17 -24 -3 -10 27 -24 16 -31 -26 -8 -47 -13 -46 -19 2 -4 43 16 61
50 45 13 -6 24 -14 24 -18z m75 4 c-6 -7 -65 9 -65 17 0 5 15 3 34 -3 19 -6
33 -12 31 -14z m335 18 c0 -5 -4 -10 -10 -10 -5 0 -10 5 -10 10 0 6 5 10 10
10 6 0 10 -4 10 -10z m240 -15 c0 -14 -4 -25 -8 -25 -7 0 -8 31 -3 48 4 11 11
-3 11 -23z m50 -10 c0 -13 -4 -14 -20 -5 -11 6 -20 13 -20 15 0 3 9 5 20 5 11
0 20 -7 20 -15z m-210 -15 c0 -5 -5 -10 -11 -10 -5 0 -7 5 -4 10 3 6 8 10 11
10 2 0 4 -4 4 -10z m40 -4 c0 -11 -19 -15 -25 -6 -3 5 1 10 9 10 9 0 16 -2 16
-4z m37 -42 c-3 -3 -12 -4 -19 -1 -8 3 -5 6 6 6 11 1 17 -2 13 -5z m50 -10
c-3 -3 -12 -4 -19 -1 -8 3 -5 6 6 6 11 1 17 -2 13 -5z m110 -20 c-3 -3 -12 -4
-19 -1 -8 3 -5 6 6 6 11 1 17 -2 13 -5z m-50 -46 c-3 -8 -6 -5 -6 6 -1 11 2
17 5 13 3 -3 4 -12 1 -19z m-750 -40 c-3 -7 -5 -2 -5 12 0 14 2 19 5 13 2 -7
2 -19 0 -25z m23 -98 c0 -5 -4 -10 -10 -10 -5 0 -10 5 -10 10 0 6 5 10 10 10
6 0 10 -4 10 -10z m-846 -65 c-4 -8 -8 -15 -10 -15 -2 0 -4 7 -4 15 0 8 4 15
10 15 5 0 7 -7 4 -15z m750 -80 c3 -9 0 -15 -9 -15 -9 0 -12 6 -9 15 4 8 7 15
9 15 2 0 5 -7 9 -15z m-354 -15 c0 -5 -4 -10 -10 -10 -5 0 -10 5 -10 10 0 6 5
10 10 10 6 0 10 -4 10 -10z m-23 -32 c-8 -4 -27 -3 -43 1 -26 8 -25 9 13 8 25
-1 37 -4 30 -9z m-392 -58 c3 -5 -3 -10 -15 -10 -12 0 -18 5 -15 10 3 6 10 10
15 10 5 0 12 -4 15 -10z m501 -25 c-8 -8 -26 -14 -40 -13 -28 3 -23 13 9 21
41 10 47 8 31 -8z m-369 -50 c-4 -8 -11 -15 -17 -15 -6 0 -6 7 2 20 14 22 24
19 15 -5z m441 3 c-2 -6 -10 -14 -16 -16 -7 -2 -10 2 -6 12 7 18 28 22 22 4z
m-68 -37 c0 -6 -4 -13 -10 -16 -5 -3 -10 1 -10 9 0 9 5 16 10 16 6 0 10 -4 10
-9z"/>
<path d="M4960 12124 c0 -14 3 -14 15 -4 8 7 15 14 15 16 0 2 -7 4 -15 4 -8 0
-15 -7 -15 -16z"/>
<path d="M4305 12090 c-3 -5 -1 -10 4 -10 6 0 11 5 11 10 0 6 -2 10 -4 10 -3
0 -8 -4 -11 -10z"/>
<path d="M4362 12041 c-10 -6 -10 -10 2 -20 10 -9 16 -9 21 -1 10 16 -7 31
-23 21z"/>
<path d="M4400 12034 c0 -8 5 -12 10 -9 6 3 10 10 10 16 0 5 -4 9 -10 9 -5 0
-10 -7 -10 -16z"/>
<path d="M4320 11995 c0 -8 2 -15 4 -15 2 0 6 7 10 15 3 8 1 15 -4 15 -6 0
-10 -7 -10 -15z"/>
<path d="M4410 11909 c0 -12 -4 -17 -11 -14 -6 4 -9 0 -7 -11 2 -11 -3 -20
-12 -20 -8 -1 -21 -2 -29 -3 -11 -1 -11 -4 -1 -17 11 -13 10 -16 -8 -21 -12
-3 -22 -9 -22 -13 0 -9 46 -30 65 -30 18 0 20 17 3 22 -9 3 -8 9 5 22 9 10 17
26 17 36 0 10 5 22 10 25 6 3 10 15 10 26 0 10 -4 19 -10 19 -5 0 -10 -9 -10
-21z"/>
<path d="M4278 11903 c6 -2 18 -2 25 0 6 3 1 5 -13 5 -14 0 -19 -2 -12 -5z"/>
<path d="M4305 11850 c-19 -8 -19 -9 3 -9 12 -1 22 4 22 9 0 6 -1 10 -2 9 -2
0 -12 -4 -23 -9z"/>
<path d="M3713 11783 c-21 -8 -15 -22 7 -16 11 3 20 9 20 14 0 10 -8 10 -27 2z"/>
<path d="M4220 11780 c0 -5 5 -10 10 -10 6 0 10 5 10 10 0 6 -4 10 -10 10 -5
0 -10 -4 -10 -10z"/>
<path d="M4312 11740 c13 -21 58 -28 58 -9 0 6 -9 8 -20 4 -14 -5 -20 -2 -20
9 0 9 -7 16 -15 16 -13 0 -13 -3 -3 -20z"/>
<path d="M4267 11744 c-10 -10 12 -44 28 -44 19 0 19 15 -1 34 -18 18 -18 18
-27 10z"/>
<path d="M4081 11694 c0 -11 3 -14 6 -6 3 7 2 16 -1 19 -3 4 -6 -2 -5 -13z"/>
<path d="M4330 11690 c0 -5 5 -10 10 -10 6 0 10 5 10 10 0 6 -4 10 -10 10 -5
0 -10 -4 -10 -10z"/>
<path d="M4370 11690 c0 -5 5 -10 10 -10 6 0 10 5 10 10 0 6 -4 10 -10 10 -5
0 -10 -4 -10 -10z"/>
<path d="M4110 11650 c0 -5 7 -10 15 -10 8 0 15 5 15 10 0 6 -7 10 -15 10 -8
0 -15 -4 -15 -10z"/>
<path d="M4161 11644 c0 -11 3 -14 6 -6 3 7 2 16 -1 19 -3 4 -6 -2 -5 -13z"/>
<path d="M4200 11640 c0 -11 5 -20 10 -20 6 0 10 9 10 20 0 11 -4 20 -10 20
-5 0 -10 -9 -10 -20z"/>
<path d="M4365 11650 c-3 -5 -1 -10 4 -10 6 0 11 5 11 10 0 6 -2 10 -4 10 -3
0 -8 -4 -11 -10z"/>
<path d="M4102 11608 c3 -7 15 -14 29 -15 13 -1 18 0 11 3 -6 3 -10 10 -6 15
3 5 -4 9 -16 9 -13 0 -20 -5 -18 -12z"/>
<path d="M3938 11603 c7 -3 16 -2 19 1 4 3 -2 6 -13 5 -11 0 -14 -3 -6 -6z"/>
<path d="M4170 11590 c20 -13 33 -13 25 0 -3 6 -14 10 -23 10 -15 0 -15 -2 -2
-10z"/>
<path d="M4116 11561 c-4 -5 -3 -17 0 -26 6 -14 3 -16 -13 -11 -17 5 -20 2
-20 -19 0 -19 5 -25 22 -25 18 0 25 8 32 38 7 27 14 36 26 34 9 -2 17 2 17 8
0 12 -57 14 -64 1z"/>
<path d="M3875 11550 c-3 -5 3 -10 14 -10 12 0 21 5 21 10 0 6 -6 10 -14 10
-8 0 -18 -4 -21 -10z"/>
<path d="M4160 11526 c0 -2 7 -7 16 -10 8 -3 12 -2 9 4 -6 10 -25 14 -25 6z"/>
<path d="M4190 11493 c-12 -14 -18 -28 -14 -31 4 -4 9 -1 11 6 6 17 23 15 23
-3 0 -8 5 -15 10 -15 6 0 10 7 10 15 0 8 -4 15 -10 15 -5 0 -10 5 -10 11 0 6
7 9 15 5 8 -3 15 -1 15 3 0 21 -30 17 -50 -6z"/>
<path d="M3777 11484 c-4 -4 -7 -14 -7 -23 0 -11 3 -12 11 -4 6 6 10 16 7 23
-2 6 -7 8 -11 4z"/>
<path d="M3680 11460 c0 -5 5 -10 10 -10 6 0 10 5 10 10 0 6 -4 10 -10 10 -5
0 -10 -4 -10 -10z"/>
<path d="M5168 12183 c7 -3 16 -2 19 1 4 3 -2 6 -13 5 -11 0 -14 -3 -6 -6z"/>
<path d="M6340 12050 c-194 -24 -387 -106 -506 -213 l-48 -44 51 -109 c65
-140 79 -186 94 -328 7 -64 15 -116 18 -116 3 0 17 23 31 52 14 28 44 71 67
94 99 102 210 140 388 132 87 -4 111 -9 168 -36 87 -41 147 -104 198 -207 72
-149 71 -145 75 -925 2 -382 4 -698 4 -701 0 -3 62 -5 138 -3 75 1 204 2 285
3 l148 1 -4 788 c-3 758 -4 790 -24 872 -96 391 -352 647 -724 724 -94 19
-273 27 -359 16z"/>
<path d="M8905 12045 c-238 -39 -456 -131 -632 -267 -68 -52 -201 -193 -258
-273 -163 -227 -251 -585 -215 -871 14 -118 59 -299 96 -386 55 -132 221 -351
339 -449 267 -221 639 -335 976 -300 289 29 566 140 763 305 101 84 230 252
299 391 163 324 181 751 47 1074 -143 346 -442 620 -792 725 -196 59 -447 79
-623 51z m379 -521 c387 -77 643 -551 525 -974 -44 -159 -131 -302 -236 -385
-218 -173 -532 -207 -794 -87 -307 140 -484 544 -394 898 21 82 93 227 149
302 165 218 440 308 750 246z"/>
<path d="M14208 12023 l-248 -3 -29 -58 c-16 -31 -60 -133 -99 -227 -79 -191
-189 -445 -252 -580 -23 -49 -104 -234 -180 -410 -76 -176 -181 -418 -234
-538 -53 -120 -96 -219 -96 -221 0 -2 -43 -102 -95 -221 -53 -120 -94 -219
-93 -219 2 -1 132 0 289 2 l287 4 30 67 c16 36 62 143 102 236 40 94 78 175
84 182 17 17 1110 28 1124 10 6 -7 47 -108 90 -225 44 -117 89 -227 99 -245
l19 -32 298 -3 298 -2 -5 22 c-3 13 -53 129 -112 258 -58 129 -153 341 -210
470 -333 758 -495 1122 -582 1309 -42 90 -86 192 -138 316 -45 107 -51 116
-79 113 -11 -2 -132 -4 -268 -5z m40 -680 c11 -21 56 -128 102 -238 101 -244
241 -577 247 -587 2 -5 -160 -8 -361 -8 -317 0 -366 2 -366 15 0 8 18 54 41
102 88 192 231 549 294 741 8 22 24 13 43 -25z"/>
<path d="M10400 12010 c0 -5 18 -49 41 -97 22 -49 63 -140 91 -203 28 -63 68
-153 90 -200 22 -47 68 -150 103 -230 35 -80 107 -242 158 -360 52 -118 122
-273 155 -345 33 -71 100 -222 150 -335 113 -258 302 -672 313 -686 5 -6 88
-11 233 -11 223 -1 225 -1 240 21 24 38 216 465 358 796 55 129 114 262 130
295 17 33 111 247 209 475 236 552 337 786 360 837 10 23 19 44 19 47 0 4
-133 6 -295 6 l-294 0 -16 -30 c-9 -17 -60 -139 -114 -273 -55 -133 -145 -350
-201 -482 -88 -207 -291 -710 -352 -873 -11 -29 -24 -52 -29 -50 -5 2 -61 131
-123 288 -63 157 -155 380 -206 495 -50 116 -140 325 -200 465 -60 140 -129
300 -154 355 l-45 100 -311 3 c-201 1 -310 -1 -310 -8z"/>
<path d="M15485 7834 c-6 -1 -27 -5 -48 -9 -47 -8 -113 -65 -138 -120 -29 -64
-25 -141 10 -197 32 -51 99 -96 155 -105 123 -20 257 106 243 227 -10 80 -51
146 -112 178 -30 16 -93 30 -110 26z m76 -96 c134 -75 50 -297 -97 -256 -120
32 -140 176 -37 258 33 26 85 26 134 -2z"/>
<path d="M16548 7830 c-20 -4 -48 -14 -63 -24 -54 -36 -82 -118 -52 -157 17
-22 84 -55 132 -64 97 -17 129 -50 88 -91 -14 -13 -29 -15 -79 -11 -34 3 -79
13 -99 21 -21 9 -41 13 -46 10 -13 -8 -11 -48 4 -66 27 -36 223 -52 265 -22
30 21 52 66 52 108 0 45 -38 77 -127 106 -90 29 -113 45 -113 75 0 41 36 51
121 35 70 -13 98 -9 106 17 6 16 -59 52 -108 61 -24 4 -60 5 -81 2z"/>
<path d="M3551 7815 c-51 -16 -107 -66 -127 -112 -18 -41 -18 -144 0 -186 17
-41 73 -91 123 -108 21 -7 68 -13 104 -13 57 0 72 4 103 27 37 29 56 74 56
135 0 51 -16 72 -53 72 -39 0 -104 -17 -112 -29 -10 -18 7 -40 41 -51 38 -13
45 -37 16 -63 -24 -22 -84 -22 -128 -1 -91 43 -109 174 -33 238 45 38 90 43
171 16 38 -12 71 -20 74 -17 8 8 -16 48 -40 69 -20 16 -99 39 -134 37 -9 0
-37 -6 -61 -14z"/>
<path d="M3993 7823 c-10 -3 -13 -53 -13 -202 0 -214 5 -236 51 -229 23 3 24
7 27 81 3 68 5 77 22 77 38 0 70 -24 99 -74 16 -29 36 -58 45 -65 21 -17 88
-20 93 -4 3 7 -16 34 -41 61 -25 27 -46 55 -46 63 0 8 17 30 39 50 46 44 54
76 35 140 -20 68 -55 90 -158 100 -93 9 -136 10 -153 2z m224 -107 c30 -35 29
-60 -4 -86 -22 -17 -38 -20 -87 -18 l-61 3 -3 44 c-2 25 -1 55 3 69 6 23 9 24
67 20 51 -4 65 -9 85 -32z"/>
<path d="M4627 7793 c-49 -77 -130 -263 -155 -355 l-10 -38 43 0 c42 0 43 1
57 43 l13 42 97 3 97 3 21 -40 c21 -43 45 -61 79 -61 28 0 27 22 -5 90 -14 30
-51 111 -81 180 -30 69 -61 135 -69 148 -23 35 -59 29 -87 -15z m83 -160 c17
-36 30 -67 30 -69 0 -8 -119 -3 -124 5 -5 8 25 108 39 131 11 17 24 1 55 -67z"/>
<path d="M5061 7821 c-11 -7 -12 -45 -6 -215 l7 -206 39 0 39 0 0 68 0 67 48
-3 c67 -5 123 12 157 48 27 29 30 38 30 100 0 65 -2 72 -32 101 -22 23 -45 34
-80 40 -65 11 -185 11 -202 0z m223 -80 c22 -19 22 -104 -1 -122 -10 -9 -41
-14 -82 -14 l-66 0 -3 69 c-2 48 1 72 10 78 19 13 123 4 142 -11z"/>
<path d="M5567 7824 c-4 -4 -7 -101 -7 -216 l0 -208 40 0 40 0 0 85 0 85 104
0 103 0 7 -41 c4 -22 4 -45 0 -50 -3 -6 -3 -26 0 -45 6 -32 10 -34 45 -34 l37
0 -4 208 c-2 114 -5 208 -6 209 -1 1 -18 4 -37 5 l-34 3 -3 -88 -3 -88 -106 3
-105 3 -2 85 -1 85 -30 3 c-17 2 -34 0 -38 -4z"/>
<path d="M6513 7810 c-78 -40 -123 -113 -123 -199 0 -63 13 -98 53 -139 64
-67 123 -86 205 -65 67 17 112 52 112 88 0 32 -15 32 -78 0 -62 -31 -99 -32
-143 -2 -95 63 -89 197 12 251 36 20 37 20 103 -2 36 -12 76 -22 87 -22 34 0
19 41 -28 74 -58 40 -139 47 -200 16z"/>
<path d="M7155 7824 l-30 -5 -3 -152 c-2 -84 0 -178 3 -209 l7 -58 88 0 c117
0 178 14 224 51 51 43 76 96 76 164 0 89 -44 157 -123 190 -37 15 -186 27
-242 19z m225 -94 c64 -29 88 -121 48 -179 -40 -59 -70 -74 -142 -75 -35 -1
-68 3 -73 7 -11 11 -17 166 -9 222 6 38 11 44 34 47 36 4 111 -7 142 -22z"/>
<path d="M7707 7823 c-4 -3 -7 -100 -7 -214 0 -189 2 -207 18 -211 9 -2 81 -2
160 0 l142 4 0 28 c0 16 -6 32 -12 37 -7 4 -52 6 -100 4 -121 -4 -128 -1 -128
61 l0 51 69 -7 c39 -4 86 -4 105 0 31 5 36 10 36 34 l0 28 -97 7 c-54 3 -104
8 -110 10 -8 3 -13 22 -13 49 0 56 10 60 140 55 l90 -4 0 38 0 37 -143 0 c-79
0 -147 -3 -150 -7z"/>
<path d="M8255 7810 c-49 -25 -76 -60 -82 -108 -9 -68 27 -94 184 -132 51 -13
69 -38 48 -68 -22 -30 -61 -34 -143 -13 -77 19 -88 16 -80 -25 8 -46 146 -79
221 -55 49 17 97 73 97 114 0 50 -43 84 -152 122 -105 37 -125 56 -89 86 27
22 88 25 157 8 37 -10 48 -9 60 2 21 22 -6 54 -63 73 -62 21 -110 20 -158 -4z"/>
<path d="M8677 7823 c-2 -5 -5 -97 -6 -207 -3 -214 -3 -216 50 -216 25 0 26 2
32 83 4 45 7 142 7 215 l0 132 -39 0 c-22 0 -42 -3 -44 -7z"/>
<path d="M9090 7814 c-42 -18 -106 -77 -127 -118 -24 -45 -19 -137 9 -188 43
-79 165 -116 247 -74 37 20 41 20 41 2 0 -8 -16 -28 -35 -45 -40 -35 -62 -37
-162 -20 -35 6 -67 9 -70 6 -3 -4 -3 -17 1 -30 4 -17 20 -31 55 -46 122 -52
244 0 285 122 9 27 16 81 16 126 l0 79 -34 6 c-48 9 -116 -3 -116 -21 0 -8 10
-32 23 -54 22 -39 22 -40 3 -54 -26 -19 -115 -19 -142 0 -62 43 -68 145 -12
202 41 42 79 49 171 28 109 -24 122 -19 72 32 -60 61 -150 79 -225 47z"/>
<path d="M9530 7631 c0 -110 3 -206 6 -215 4 -10 18 -16 40 -16 l33 0 3 132 3
132 75 -89 c42 -50 88 -107 103 -127 23 -30 83 -66 93 -56 1 2 4 98 6 215 l3
211 -25 4 c-60 8 -60 8 -60 -135 l-1 -132 -32 36 c-17 20 -61 74 -96 119 -60
77 -109 120 -138 120 -10 0 -13 -46 -13 -199z"/>
<path d="M10409 7807 c-54 -36 -59 -80 -17 -139 10 -14 6 -23 -26 -58 -34 -38
-38 -47 -33 -83 7 -53 33 -87 87 -114 63 -32 95 -30 136 11 l33 33 27 -28 c18
-19 38 -29 56 -29 35 0 35 11 3 67 -28 47 -26 62 19 100 50 44 17 69 -45 34
-44 -25 -77 -25 -92 1 -8 13 -5 25 16 55 59 85 17 173 -81 173 -35 0 -59 -7
-83 -23z m115 -53 c34 -33 2 -94 -49 -94 -25 0 -45 29 -45 65 0 21 29 45 55
45 13 0 31 -7 39 -16z m-30 -176 c47 -21 47 -85 1 -106 -21 -10 -32 -9 -55 3
-17 9 -30 19 -30 23 0 4 -3 17 -6 29 -4 14 1 28 15 42 24 24 39 26 75 9z"/>
<path d="M11422 7793 l3 -38 68 -3 67 -3 0 -174 0 -175 40 0 40 0 2 178 3 177
57 0 c63 0 63 0 71 36 6 24 3 27 -24 33 -17 3 -99 6 -181 6 l-149 0 3 -37z"/>
<path d="M12275 7816 c-49 -21 -85 -71 -85 -117 0 -55 33 -83 135 -114 45 -14
90 -34 100 -45 17 -19 17 -21 1 -39 -28 -30 -60 -33 -147 -11 -91 24 -111 18
-91 -24 16 -36 67 -58 142 -63 54 -4 73 0 109 19 25 13 53 35 64 49 41 56 -18
137 -122 169 -76 23 -111 45 -111 69 0 42 56 58 145 40 75 -15 94 -6 69 30
-34 47 -142 66 -209 37z"/>
<path d="M12785 7815 c-102 -36 -163 -176 -120 -278 47 -114 177 -172 276
-122 43 22 96 72 115 107 17 33 18 117 2 169 -13 46 -68 106 -114 125 -42 18
-107 17 -159 -1z m122 -66 c125 -47 113 -231 -18 -271 -53 -15 -106 12 -137
73 -39 74 -13 156 60 192 39 20 57 21 95 6z"/>
<path d="M13268 7822 c-16 -3 -18 -21 -18 -197 0 -106 3 -200 6 -209 5 -14 27
-16 140 -16 l134 0 6 26 c4 14 3 29 -2 34 -5 5 -52 10 -104 12 l-95 3 -3 171
c-2 169 -3 172 -25 176 -12 2 -30 2 -39 0z"/>
<path d="M13987 7823 c-4 -3 -7 -70 -7 -147 0 -159 -6 -176 -65 -196 -43 -14
-87 -6 -111 22 -16 17 -20 42 -24 167 l-5 146 -37 3 -38 3 0 -138 c0 -153 10
-205 45 -238 55 -50 171 -56 237 -11 18 12 44 42 58 66 23 41 25 56 26 178 1
133 1 134 -23 143 -29 11 -47 12 -56 2z"/>
<path d="M14238 7823 c-23 -4 -28 -9 -28 -33 0 -29 0 -29 68 -32 l67 -3 3
-178 2 -178 38 3 37 3 2 150 c4 204 0 193 76 197 l62 3 0 35 0 35 -150 1 c-82
1 -162 -1 -177 -3z"/>
<path d="M14660 7615 c0 -204 1 -215 19 -215 40 0 81 13 81 26 0 18 10 17 34
-1 12 -9 42 -15 73 -15 53 0 53 0 53 31 l0 31 -82 -3 -83 -4 4 183 3 182 -51
0 -51 0 0 -215z"/>
<path d="M15880 7620 l-1 -209 25 -7 c50 -12 61 -3 64 56 2 30 -1 94 -6 143
l-8 87 24 -27 c12 -16 61 -78 107 -139 47 -62 92 -114 101 -118 31 -12 52 -6
58 17 8 29 8 371 0 391 -4 10 -18 16 -40 16 l-34 0 0 -129 c0 -72 -3 -132 -8
-135 -4 -2 -46 45 -92 106 -90 117 -134 158 -168 158 -20 0 -21 -4 -22 -210z"/>
<path d="M6130 7610 l0 -211 43 3 42 3 0 205 0 205 -42 3 -43 3 0 -211z"/>
<path d="M11169 7713 c-2 -60 -2 -152 -1 -205 l4 -98 39 0 39 0 0 205 0 205
-39 0 -39 0 -3 -107z"/>
<path d="M15020 7611 l0 -211 40 0 40 0 0 200 c0 110 1 203 3 208 1 4 -17 8
-40 10 l-43 3 0 -210z"/>
</g>
</svg>
